<?xml version="1.0" encoding="utf-8"?>
<!-- Generator: Adobe Illustrator 24.0.2, SVG Export Plug-In . SVG Version: 6.00 Build 0)  -->
<svg version="1.1" id="Capa_1" xmlns="http://www.w3.org/2000/svg" xmlns:xlink="http://www.w3.org/1999/xlink" x="0px" y="0px"
	 viewBox="0 0 172.4 136" style="enable-background:new 0 0 172.4 136;" xml:space="preserve">
<style type="text/css">
	.st0{fill:none;}
	.st1{fill:#B5122A;}
	.st2{fill:#01293B;}
</style>
<polygon class="st0" points="778.2,192.4 185.2,194.4 185.2,3.6 778.2,1.6 "/>
<path class="st1" d="M140.9,72.4c-6.3,0-12.6,0-19,0c-1.3,0-2.5-0.3-3.3-1.4c-0.6-0.9-1.2-1.9-1.9-2.8c-1-1.4-1.9-3-2.9-4.4
	c-1.2-1.6-2.1-3.5-3.3-5.1c-0.7-0.9-1.2-1.9-1.8-2.9c-0.4,0.8-0.8,1.4-1.2,2.1c-1,1.9-2,3.8-3.1,5.6c-1.3,2.2-2.5,4.6-3.7,6.8
	c-0.8,1.5-2,2.2-3.6,2.2c-1.1,0-2.2,0-3.4,0c-0.3,0-0.4,0-0.5,0.3c-0.4,1.3-0.9,2.6-1.4,3.9c-1.2,3.1-2,6.3-3.1,9.3
	c-0.8,2.2-1.4,4.5-2.2,6.7c-0.3,0.8-0.5,1.6-0.9,2.3c-0.8,1.6-2.1,2.4-3.7,2.2c-1.3-0.2-2.9-1.4-3.1-3.1c-0.1-1.1-0.3-2.2-0.5-3.2
	c-0.7-4.2-1.2-8.4-2.1-12.6c-0.3-1.3-0.4-2.7-0.6-4c-0.4-2.7-0.9-5.5-1.3-8.2c-0.4-2.3-0.6-4.6-1.2-6.8c-0.3-1.3-0.5-2.7-0.7-4
	c-0.2,1-0.3,2-0.4,3c-0.3,2.9-0.6,5.8-1,8.7c-0.4,3.5-0.6,7-1.2,10.5c-0.3,1.6-0.4,3.3-0.5,5s-1.2,3-3,3.3c-1.4,0.2-3.2-0.6-3.8-2
	c-0.7-1.8-1.4-3.7-2.2-5.5c-0.7-1.6-1.3-3.2-1.9-4.8C58.2,73.1,58,73,57.6,73c-3.6,0-7.2,0-10.7,0c-1,0-1.9-0.4-2.6-1.1
	c-1.8-1.7-3.5-3.4-5.2-5.1c-0.3-0.3-0.5-0.4-0.9,0c-1.8,1.8-3.7,3.7-5.6,5.5c-0.8,0.8-1.8,1.2-3,1.2c-13.2,0-24-0.2-24.4-0.2
	c0,0-0.3-7,0-7c14.4,0,8.3,0.4,22.7,0.4c0.2,0,0.4,0,0.6-0.2c0.5-0.5,1-0.9,1.5-1.4c1.7-1.7,3.4-3.4,5.2-5c0.4-0.4,0.8-0.8,1.2-1.1
	c0.9-0.7,1.9-0.9,3.1-0.7c1.1,0.2,1.8,1,2.5,1.7c1.9,1.8,3.8,3.7,5.7,5.5l0.1,0.1c0.4,0.4,0.8,0.6,1.4,0.6c3.8,0,7.7,0,11.5,0
	c1.2,0,2.1,0.5,2.7,1.4c0.2,0.2,0.3,0.5,0.5,0.6c0.2-1.7,0.4-3.3,0.5-5c0.2-2.1,0.5-4.3,0.7-6.4c0.2-2.1,0.5-4.3,0.7-6.4
	c0.2-1.8,0.4-3.5,0.6-5.3c0.2-1.3,0.3-2.7,0.5-4c0.3-1.3,0.3-2.7,0.4-4.1c0.3-2.5,0.6-5,0.8-7.5c0.2-1.7,0.9-2.8,2.5-3.3
	c1.9-0.6,4.1,0.6,4.5,2.6c0.4,2.4,0.7,4.8,1.2,7.1c0.6,2.6,0.8,5.2,1.3,7.8c0.6,3.7,1,7.3,1.8,11c0.3,1.1,0.4,2.2,0.5,3.3
	c0.4,2.7,0.9,5.5,1.3,8.2c0.4,2.5,0.7,5,1.3,7.4c0.4,1.9,0.6,3.8,0.9,5.8c0.9-2.4,1.5-4.8,2.4-7.1c0.6-1.4,0.9-2.8,1.4-4.2
	c0.5-1.4,1.5-2.2,3-2.3c1.5-0.2,3,0,4.5-0.1c0.3,0,0.5-0.1,0.7-0.4c1-1.8,1.9-3.7,3-5.5c1.1-1.9,2-3.9,3.2-5.8
	c1.3-2.2,2.4-4.4,3.6-6.6c1.3-2.2,4.4-2.4,6-0.2c1.1,1.5,1.9,3.1,3,4.6s2,3.1,3,4.7c1.3,1.8,2.3,3.7,3.6,5.5c0.7,1,1.3,2.1,2,3.2
	c0.2,0.3,14.7,0.2,15.1,0.2"/>
<circle class="st1" cx="138.7" cy="67.9" r="7.5"/>
<path class="st2" d="M40.6,134.4c-12.9,0.4-24.9-2.4-26.6-20c-1.2-12.9,4.2-37.8-12.5-37.9L1.4,60.3c21-5.1,6.8-35.9,16.3-51.1
	C22.8,1,33,1.6,40.6,1.8v15.9C28.3,17.8,29.2,23,28.2,35.2c-1,11.5,0.8,21.7-9.6,32.4C24,75.3,27,78,28.1,88.4
	c0.6,5.4-0.1,21.7,1.4,25.5c1.6,4,7.9,3.6,11,3.4L40.6,134.4L40.6,134.4z"/>
<path class="st2" d="M131.4,1.4c12.9-0.4,25,2.4,26.7,20c1.3,13-4.2,37.9,12.5,38l0.1,16.4c-21,5.1-6.8,36-16.3,51.3
	c-5.1,8.2-15.3,7.6-23,7.4v-15.9c12.4-0.2,11.4-5.4,12.4-17.6c1-11.6-0.8-21.8,9.6-32.5c-5.4-7.7-8.5-10.4-9.6-20.9
	c-0.6-5.4,0.1-21.7-1.4-25.6c-1.6-4-7.9-3.6-11-3.4V1.4z"/>
</svg>
