<?xml version="1.0" encoding="utf-8"?>
<!-- Generator: Adobe Illustrator 24.0.2, SVG Export Plug-In . SVG Version: 6.00 Build 0)  -->
<svg version="1.1" id="Capa_1" xmlns="http://www.w3.org/2000/svg" xmlns:xlink="http://www.w3.org/1999/xlink" x="0px" y="0px"
	 viewBox="0 0 289 628" style="enable-background:new 0 0 289 628;" xml:space="preserve">
<style type="text/css">
	.st0{fill:#FEFEFE;}
	.st1{fill:#D0D1D3;}
	.st2{fill:#3A9EC9;}
	.st3{fill:#D0D2D3;}
	.st4{fill:#D0D2D4;}
	.st5{fill:#D1D2D4;}
	.st6{fill:#D2D4D5;}
	.st7{fill:#D3D4D6;}
	.st8{fill:#FFFFFF;}
	.st9{fill:#FCFCFC;}
	.st10{font-family:'MyriadPro-Regular';}
	.st11{font-size:10px;}
	.st12{font-size:18px;}
</style>
<g>
	<path class="st0" d="M443.9-434.6c160.5,0,321,0,481.4-0.1c2.8,0,3.4,0.6,3.4,3.4c-0.1,214.2-0.1,428.4,0,642.6
		c0,2.8-0.6,3.4-3.4,3.4c-901.5-0.2-1412.6,0.1-962.9,0c-2.8,0-3.4-0.6-3.4-3.4c0.1-214.2,0.1-428.4,0-642.6c0-2.8,0.6-3.4,3.4-3.4
		C122.9-434.6,283.4-434.6,443.9-434.6z"/>
	<path class="st1" d="M76.7-299.9c-5.6,0.3-7.1,5-8.9,8.9c-6,12.4-9.1,25.6-12,39c-2.4,11.3-4,22.7-5.4,34.2
		c-1.3,9.9-1.4,19.9-1.3,29.8c0.1,5.7,0.9,11.4,3,16.8c1.5,3.9,4.3,6.7,8.3,8.1c3.8,1.3,5.8-0.1,5.8-4.2c0-5.7-1.6-11-3.2-16.4
		c-0.4-1.3-1.5-2.6-0.5-4.7c3.4,3,5.2,6.7,6.8,10.5c1.9,4.4,1.8,9,1.4,13.6c-0.4,3.7-3.1,6.1-6,8.2c-3.9,2.9-6.6,6.7-8.8,11
		c-2.6,5.1-1,9.8,0.5,14.8c3.1,10.4,7.7,19.9,15.7,27.6c7.7,7.3,16.9,11.8,27,14.5c5.8,1.6,15.7-4.4,19.4-11
		c3.8-6.9,4.6-14.5,3.9-22.1c-0.5-5.7-0.5-11.4-0.5-17.2c0-4-0.6-7.9-1-11.9c-0.6-5.7-4.3-9.6-9.2-12.3c-4.5-2.5-9.3-4.2-13.8-6.7
		c-6.5-3.6-10.2-8.6-9.8-16.1c0.1-3.2-0.6-6.5,1.1-9.8c1.6,4.4,1.4,8.8,3.2,12.9c2.1,5,6.1,7.5,10.8,8.8c4.5,1.3,8.1-2.3,7.3-7
		c-0.4-2.1-1-4.1-1.7-6.1c-0.6-1.9,0-2.8,1.9-3.1c3.3-0.6,6.5-1.3,10.2-2.1c-1.4,4.6-2.1,8.9-2.2,13.3c-0.1,4.4,1.5,7.5,5.6,9.1
		c4.3,1.8,8.6,1.7,12.1-1.7c7.5-7.1,9.3-16.1,7.5-25.9c-0.3-1.6-0.7-3.2-1.3-5.8c9.6,14.5,9.4,26.4-3.4,36.5
		c-8.1,6.4-11.9,14.6-12.3,24.8c-0.3,8.5,0.9,16.9,0.8,25.4c0,2.8-0.7,5.5-0.3,8.5c0.7,4.4,2.9,7.1,6.8,7.9c8.1,1.5,16.2,3.9,24.6,2
		c1.6-0.4,3.2-0.7,4.3-2c10.3-11.5,21.4-22.5,28.2-36.5c7.5-15.2,5.8-30.6-1.5-45.6c-1.2-2.5-3.2-3.8-5.8-4.2
		c-11.2-1.3-18-8.3-22.7-17.8c-0.7-1.5-1.1-3.2-1-5c3.1,3.8,6.2,7.6,9.3,11.5c3.1,3.9,9.6,5.9,14.2,4.3c2.2-0.8,2.6-3.5,5.1-4.2
		c3.7-1,7.3-2.4,11-3.6c0.7-0.2,1.4-0.4,2.1-0.7c7.3-2.7,6.4-3.8,7.1,5.4c0.5,6.7-0.6,13.6-1.3,20.4c-1.3,12.1-3.7,24.1-7.9,35.5
		c-3.8,10.3-8.8,20-17.1,27.6c-5.4,5-10.6,10.2-15.6,15.6c-5,5.4-11.4,7.4-18,5.7c-11.3-2.9-21.4-0.4-31.5,4.2
		c-11.7,5.3-23.3,5-34.3-1.8c-10.5-6.4-18.9-15.3-26.4-25c-11.3-14.9-16.4-32.1-19.2-50.2c-2-13-2.9-26-2.1-39.1
		c0.6-11.3,1.5-22.5,2.7-33.8c1.3-12.4,3.7-24.5,6.8-36.5c4.5-17,12.7-31.6,27.7-41.5c1.2-0.8,2.3-2.5,3.8-1.8
		c1.6,0.8,0.6,2.7,0.8,4.1c0.1,1,0,2,0.1,3C79.3-306.2,78.6-303,76.7-299.9z"/>
	<path class="st2" d="M124.7,371.6c0.4-6,2.5-10.8,8.3-13.4c4.7-2.1,9.1-1.4,13.1,1.4c4.1,2.8,6.1,7,5.4,12
		c-0.4,2.8-0.2,3.9,2.7,2.5c2.7-1.3,3.7-0.2,4.4,2.4c1.2,4.7,3,11.1,4.3,15.8c0.4-0.1,0.6-0.9,1-1c-0.8-3.2-1.7-7.5-2.7-10.7
		c-2.3-7.5-2.3-7.5,3.9-11.9c5.9-4.3,10.4-9.7,13.1-16.4c0.8-2,1.7-2.7,3.9-1.7c4.3,2,8.7,3.9,13,5.6c1.9,0.8,2.3,1.7,1.4,3.6
		c-7.2,15.4-17.9,25.9-32.3,31.5c-0.4,0.2-0.9,0.3-1.3,0.5c-4.4,1.6-9.1,2.7-14.2,3.5c-11.1,1.6-21.5-1-31.8-4.5
		c-3.3-1.1-5.6-4-8.3-6.2c-1.1-0.9-0.4-1.8,0.1-2.6c2.3-3.7,4.7-7.3,6.9-11.1c1.4-2.4,2.6-3,4.9-1
		C121.6,370.7,122.9,371.5,124.7,371.6z"/>
	<path class="st3" d="M110.4,170.5c-0.1,0.7-1.1,1.4-0.2,1.9c0.8,0.4,1-0.9,1.6-1.2c2,1.5,3.8,3.1,5.8,4.6c1,0.7,2.1,1.4,1.8,2.9
		c-7.1,0.2-13.7-2-20.4-3.8c-12.2-3.2-23.7-8.1-34.4-14.9c-6.8-4.3-11.1-10.5-14.8-17.3c-4.5-8.4-6.9-17.5-6.8-27.1
		c0.1-8.4,3.2-16,7.7-23c9.7-14.8,23.9-22,40.8-25.8c10.7-2.4,21.5-3.9,32.4-4c8.5-0.1,17.1,1.6,25.7,1.4c0.4,0,0.9,0.4,1.3,0.6
		c-1.6,1.6-3.8,1.1-5.7,1.1c-11.6-0.2-22.1,3.3-31.9,9.1c-0.9,0.5-1.7,1.1-2.8,0.5c0.3-1.1,0.1-1.7-1.2-1.6
		c-12.6,0.8-25.6,0.3-36.6,8c-11.9,8.3-19.9,19.1-20,34.2c0,6,2.4,11.4,5.6,16.3c8,12.3,17.6,22.7,31.9,27.7
		c2.3,0.8,4.8,1.4,7.1,2.1c0.6,0.2,1.5,0.8,1.6-0.6C103.7,163.6,107,167.2,110.4,170.5z"/>
	<path class="st2" d="M127.7-318.5c12.3,7.5,22,17.9,32.1,27.9c1.7,1.7,1.5,2.7-0.4,4c-4.5,2.9-9,5.9-13.2,9.2
		c-2.4,1.8-3.7,1.4-5.4-0.8c-6.5-8.3-13.9-15.7-22.3-22c-3.2-2.4-6.5-4.7-10.2-6.3c-4.3-1.8-6.6-0.6-7.6,4c-1.5,6.8,0,13.4,1.2,20
		c1,5.6,2.1,11.3,3.5,16.8c0.6,2.3-0.2,2.9-2.1,3.2c-4.4,0.7-8.9,1.4-13.3,2.2c-2.3,0.4-2.4-1.2-2.7-2.6c-1.8-7.9-3.2-15.8-3.8-23.9
		c-0.2-3.8-1.4-7.3-3.3-10.6c-0.4-2.9,2.1-3.1,3.8-3.8c8.8-3.7,17.5-7.6,26.4-11.2c4.3-1.7,8.4-3.8,12.7-5.5
		C124.5-318.7,126-319.4,127.7-318.5z"/>
	<path class="st2" d="M116.6,305.4c-18.2,15.5-19.6,42.1-2.8,58.9c1.9,1.9,2.4,3.3,0.7,5.7c-2.2,3-4,6.3-5.9,9.5
		c-1.4,2.4-2.6,4-5.1,1.2c-0.5-0.5-1.3-0.7-1.9-1.1c-5.9-2.9-9.3-8.1-12.3-13.7c-3.7-6.3-6.2-13-7.2-20.3c-0.8-5.4,0.2-6.5,5.5-6.5
		c3.4,0,6.7,0,10.1,0c-4,0-8.1,0-12.1,0c-3.3-0.1-4.5-1.3-4.3-4.6c0.9-11.9,3.9-23,11.1-32.8c1-1.3,1.8-2.7,2.9-3.9
		c2-2.2,4-4.4,6.1-6.5c1.5-1.3,3.1-1.9,4.6-0.3c3.5,4,7.2,7.8,10.5,12C117,303.7,117.3,304.5,116.6,305.4z"/>
	<path class="st4" d="M456.5-203.6c0.9,0.6,0.8,1.3,0.8,1.9c-0.6,11,7.1,16.2,16,17.9c8.2,1.6,16.2,3.7,24.2,5.9
		c7.2,1.9,11.3,7.4,12.9,13.8c4.3,17,4.2,34.1-3.4,50.3c-6.5,13.7-18.1,21.7-32.4,25.5c-11.6,3.1-23.5,4.6-35.3,0.5
		c-6.1-2.1-11.2-5.9-15.3-10.8c-9-11-14-23.6-15.4-37.7c-0.3-3.4-1.3-6.8-2.4-10.1c-0.7-2.1-0.2-3.4,1.2-5
		c5.4-6,10.7-12.1,16.1-18.1c7.2-7.9,8.3-16.4,3.1-25.7c-0.2-0.3-0.3-0.7-0.4-1c0-0.1,0.1-0.2,0.2-0.3c6.4,4.4,8.4,11.8,6.1,18.8
		c-2.6,7.9-8,13.9-13,20.3c-2.2,2.9-4.3,5.8-4.6,9.5c-1.1,14.2,0.7,27.9,8.6,40.1c8.2,12.7,25.7,19.9,41.2,14.3
		c11.3-4.1,21.9-9.1,30.4-17.6c9.2-9.3,14-20.7,14.1-33.9c0-4.5,0.1-8.9-0.6-13.4c-1.8-11.5-5.9-16.2-17.1-17.8
		c-7.5-1-14.9-2.9-22.2-4.8c-4.3-1.1-8-3.4-11.2-6.4C453.7-191.3,453.2-196.9,456.5-203.6z"/>
	<path class="st2" d="M166.1,290.1c2.3-7.8,2.4-7.9,9.1-3.3c22.1,15.1,30.6,40.6,24.3,64.9c-1.1,4.4-1.3,4.3-5.5,2.4
		c-3.8-1.7-7.5-3.3-11.4-4.8c-2-0.8-2.6-1.9-2-4c1.4-5.2,1.4-10.5,0.6-15.9c-0.5-2.8-1.1-3-3.5-1.7c-4,2.1-8,1.4-11-1.6
		c-3.1-3.1-3.7-7-1.7-11c1-2,2.6-3.4,4.6-4.2c2.2-0.8,1.6-1.5,0.5-2.8c-2.4-2.9-4.6-3-7.1-5.8l-1-1"/>
	<path class="st2" d="M204.8,122.3c-0.1,8.2-1.1,13.9-2.7,19.5c-0.7,2.3-1.8,2.6-3.8,1.7c-4.3-1.9-8.7-3.8-13-5.6
		c-1.6-0.7-2.2-1.5-1.8-3.4c4.4-17.9-1.2-32.3-15.9-43.2c-1.4-1-1.6-1.9-1.1-3.4c1.5-4.5,3.1-8.9,4.3-13.5c0.9-3.3,2.4-3,4.8-1.5
		C194.6,84.9,204.3,102.1,204.8,122.3z"/>
	<path class="st3" d="M116.6,305.4c-1-3.1-3.8-4.7-5.5-7.3c-0.5-0.8-1.3-1.4-2-2.2c-5.8-6.1-5.8-6.1-11.4,0.3c-0.5,0.5-1,1-1.5,1.5
		c-7.1,0.6-14.2,1.1-20.6,4.8c-9.1,5.2-15.1,12.7-17.5,23c-1.7,7.2,0.8,13.4,4.6,19.1c3.7,5.6,8.2,10.7,13.4,15
		c4.1,3.3,9,5.3,14.2,6.4c2.7,5.4,7,9.4,11.3,13.5c-9.5-1.1-18.3-4.5-26.8-8.6c-19.5-9.4-27.6-26.6-25.4-45
		c1.1-9.6,6.5-17.8,14.1-23.8c14.7-11.6,31.9-17.5,50.1-20.6c1.5-0.3,3,0,4.5-0.1c-0.5,2.3-2.7,2.2-4.3,3c-7.2,3.7-7.2,3.8-2.3,10
		c1.6,2.1,3.5,3.9,5.3,5.8c1,1,1.9,2,1.9,3.5C118.4,304.8,117.5,305,116.6,305.4z"/>
	<path class="st2" d="M162.7-287.2c0.6,0.5,1.2,0.9,1.7,1.4c9.3,10.2,18,20.9,25.8,32.4c1.3,2,0.9,2.9-0.9,4.1
		c-5.8,3.9-11.5,7.9-17.2,11.9c-1.8,1.3-2.8,1.2-4-0.9c-6.8-11.6-13.9-23-22.1-33.6c-1.2-1.5-1.6-2.7,0.3-4c5-3.4,10-6.9,15-10.4
		C161.7-286.7,162.1-286.9,162.7-287.2z"/>
	<path class="st4" d="M799.9-158.7c6.7-7,11.1-15,13.6-23.7c2.7-9.4,4-19,3.1-29c-0.9-10.1-3.1-19.8-6.1-29.5
		c-3.1-10-6.7-19.8-11.3-29.1c-3.3-6.6-4.9-13.4-5.4-20.7c-0.3-4.3-0.9-8.6-0.7-13.1c2.5,4.8,5.1,9.5,7.4,14.3
		c5.7,11.8,10.2,24,14.5,36.3c4.8,13.6,8.2,27.5,8.9,42.1c0.5,10-0.1,19.8-2.5,29.5c-1.8,7.2-5.2,13.7-9.6,19.7
		C808.3-157.1,806.1-156.6,799.9-158.7z"/>
	<path class="st2" d="M208.8-207.8c0.4,1.5-0.6,2.6-3,3.4c-5.6,1.8-11.1,3.8-16.6,5.8c-1.5,0.5-2.6,0.8-3-1.3
		c-2.2-11.4-8.4-20.9-13.9-30.8c-1.5-2.7-1.8-4.3,1.2-6.2c5.6-3.5,10.9-7.5,16.3-11.2c1.2-0.8,2.3-2.1,3.6,0
		C200.9-235.9,207.1-223.2,208.8-207.8z"/>
	<path class="st2" d="M110.5,75.5c12.2-8.2,25.8-11.4,40.4-10.7c5.7,0.6,11.2,2,16.6,4c2.2,0.8,3.2,1.8,2.2,4.4
		c-1.6,4.2-3.1,8.4-4.2,12.7c-0.7,2.8-1.6,3-4,1.8c-9.6-4.4-19.5-4.7-29.4-1.3c-2.9,1-5.9,2-8.3,4.1c-1.6,1.4-2.9,1.2-4.4-0.5
		c-2.9-3.4-6-6.7-9-10c-0.8-0.9-1.4-2.2-3-1c-0.3,0.2-0.6,0.2-0.9,0C107.9,77.9,109.2,76.7,110.5,75.5z"/>
	<path class="st2" d="M118.7,303.7c-3.7-4.1-7.4-8.3-11.2-12.4c-1.5-1.6-1.6-2.5,0.3-4.1c3.1-2.6,6.9-3.8,10.3-5.8
		c9.4-3.5,19.1-5.6,29.2-4.5c6,0.6,11.7,2.2,17.3,4.3c1.9,0.7,2.2,1.8,1.6,3.7c-1.6,5.3-4.2,10.4-4.8,16c0,0,0,0,0,0
		c-4.2-0.7-7.8-3-12-3.8C138.4,295.1,128.1,297.5,118.7,303.7z"/>
	<path class="st2" d="M698.2-223.9c-4.5-0.9-9-1.8-13.6-2.7c-2-0.4-2.6-1.3-2.1-3.4c3.5-16,9.5-31,17.5-45.2
		c0.4-0.7,0.8-1.3,1.1-1.9c4-7.3,4-7.3,11.7-3.7c6.7,3.2,6.7,3.2,3.7,10c-6.3,14.4-11.8,29.1-15.7,44.4
		C700.5-225,700.5-223.1,698.2-223.9z"/>
	<path class="st2" d="M415.4-166.5c0.7,2.5-0.5,4.7-2.7,6.7c-1.9,1.8-3.4,3.9-5.2,5.8c-0.7,0.7-1.2,2.2-2.5,1.8
		c-1.1-0.3-0.9-1.7-1.2-2.6c-4.4-15.6-8.1-31.3-10.8-47.3c-1.2-6.7-2-13.5-3-20.3c-0.4-2.5,0.4-3.8,3.1-3.5c1.1,0.1,2.2,0,3.4-0.1
		c7.4-0.6,7.4-0.6,7.6,6.9c0.2,8.3,2.3,16.2,5,24C412.2-185.8,415.2-176.7,415.4-166.5z"/>
	<path class="st2" d="M686-157.1c-0.2-12.8-4.3-24.6-5.6-36.9c-1-9.8-0.7-19.6,0.9-29.4c0.4-2.1,1.2-2.4,3-1.9
		c4.2,1,8.5,1.9,12.8,2.7c2,0.4,2.6,1.4,2.1,3.4c-2.2,8.8-2.5,17.7-1.5,26.7c0.7,6.4,0.4,13,0.1,19.4c-0.2,3.4-1.2,6.3-3.9,8.6
		C691.3-162.2,688.9-159.8,686-157.1z"/>
	<path class="st2" d="M166.6,518c-2.9,0.8-4.1-2.9-6.3-4.4c-12.6-8.7-29.3-6.8-39.2,4.8c-1.8,2.1-2.8,2.1-4.7,0.6
		c-2.1-1.7-4.4-3.3-6.8-4.6c-2.1-1.2-2.1-2.5-0.6-4c1.4-5.3,6.1-7.3,10.1-9.9c0.8-0.5,1.8-0.7,2.6-1.2c7-3.1,14.1-5.5,21.9-5.3
		c12.3,0.3,22.7,4.7,31.3,13.7c1.7,1.7,1.6,2.8-0.2,4.1"/>
	<path class="st2" d="M119.5,178.7c-1.3-2-3.5-3-5.2-4.4c-1.1-0.8-2.2-1.5-2.3-3.1c2.7-4.3,5.5-8.6,8.1-13c1-1.7,1.7-1.9,3.5-0.8
		c10.7,6.9,22.2,8.4,34.4,4.5c2.2-0.7,3.2-0.1,3.7,2.1c1.1,4.6,2.3,9.2,3.8,13.7c0.6,2,0,2.6-1.7,3.2c-12,3.6-24.1,3.8-36.1,0.1
		C124.8,180.1,122.2,179.1,119.5,178.7z"/>
	<path class="st2" d="M106.6,79.1c0.3,0,0.6,0,0.9,0c3.4,3.8,6.7,7.7,10.3,11.4c1.7,1.8,2.2,2.9,0.1,4.8c-8.4,7.8-12.3,17.7-12.5,29
		c0,2.2-0.8,2.8-2.9,2.7c-4.6-0.1-9.2-0.1-13.8,0c-2.4,0.1-3-0.8-2.9-3.1C86.1,106,92.7,90.9,106.6,79.1z"/>
	<path class="st2" d="M110.4,170.5c-4.4-2.2-7.7-5.7-11.3-8.8c-7.4-8.7-11.3-18.9-13.1-30.1c-0.4-2.2,0.3-3.2,2.7-3.1
		c4.9,0.1,9.7,0.1,14.6,0c1.9-0.1,2.5,0.6,2.8,2.5c1.5,8.7,5.4,16.3,12.1,22.2c1.5,1.3,1.7,2.3,0.6,4
		C115.8,161.6,113.2,166.1,110.4,170.5z"/>
	<path class="st2" d="M172.3,536.5c0.2-4.5-1.1-9.6-4.2-14.2c-1-1.5-1-2.6,0.6-3.7c2.4-1.8,4.7-3.6,7-5.6c1.9-1.7,3.1-1.2,4.4,0.8
		c8.1,13.3,9.3,27.1,3.1,41.4c-2.1,4.8-5.1,9.1-8.8,12.8c-1.7,1.7-2.7,1.5-4.1-0.3c-1.8-2.4-3.8-4.6-5.8-6.9
		c-1.3-1.4-1.2-2.4,0.2-3.8C169.8,551.8,172.3,545.1,172.3,536.5z"/>
	<path class="st2" d="M168.6,178.7c-1.5,0.1-1.6-0.9-1.9-1.9c-1.3-4.8-2.5-9.6-4-14.4c-0.5-1.7,0-2.5,1.4-3.2
		c7.9-4.2,13.4-10.6,17.4-18.5c0.8-1.5,1.5-2.1,3.2-1.4c4.5,1.9,8.9,3.8,13.4,5.6c1.7,0.7,2.4,1.6,1.5,3.4
		c-6.4,13.6-16.3,23.7-30,30C169.2,178.6,168.9,178.6,168.6,178.7z"/>
	<path class="st2" d="M144.2,580.9c-11.6,0.1-20.8-3.6-28.9-10.1c-2.3-1.8-3.2-3.4-0.2-5.3c0.2-0.1,0.4-0.3,0.5-0.5
		c2.2-1.9,4.1-4.4,6.6-5.4c3-1.3,4.8,2.2,7.2,3.4c10.6,5.4,20.6,4.6,30.4-1.7c1.3-0.8,2.2-0.9,3.2,0.3c1.3,1.6,2.7,3.2,4.1,4.9
		c4.4,5.3,4.9,4.3-1.2,8.1C159,578.9,151.3,581,144.2,580.9z"/>
	<path class="st2" d="M421.3-317.2c-9.9,7-11.7,17.4-13.3,28c-0.8,5.5-1.7,11.1-2.2,16.6c-0.2,2.5-1.3,2.9-3.4,2.5
		c-2.2-0.4-4.4-0.7-6.6-1.1c-6.3-1.1-6.4-1.2-5.9-7.3c1-11.1,3.2-21.9,8.6-31.8c1.8-3.3,3.6-5.8,8.1-5.7
		C411.5-315.8,416.4-316.7,421.3-317.2z"/>
	<path class="st2" d="M764-328.2c3.5,0,7.5,0,11.4,0c1.4,0,2.2,1.1,3,2.1c4.4,5.1,8.1,10.7,11.6,16.5c1.3,2.3,0.9,4.9,1.1,7.3
		c1.1,10.3,2.9,20.5,2.7,30.9c-0.1,3.3-0.8,4.9-4.6,4.7c-8.3-0.5-8.3-0.3-8.1-8.3c0.1-6.1,0.1-12.2,0.1-18.3
		c-0.1-11.6-4.4-21.3-12.7-29.3C766.7-324.3,765.5-326.3,764-328.2z"/>
	<path class="st2" d="M793.1-262.5c-1.4,14.6-2.8,28.7-5,42.8c-0.4,2.7,0.7,6.6-1.9,7.9c-2.1,1-5.3-0.2-8-0.5c-5-0.5-5-0.8-4.2-5.8
		c2.2-15,4.3-30,6.2-45.1c0.3-2.6,1.3-3.1,3.5-2.9c2.1,0.3,4.2,0.6,6.3,0.6C792.7-265.6,793.6-264.5,793.1-262.5z"/>
	<path class="st2" d="M743.1-327.3c-9.3,14.4-15,30.1-21.3,45.5c-1.1,2.7-2,3.2-4.5,1.8c-3-1.7-6.2-3.1-9.4-4.6
		c-1.4-0.7-2.3-1.4-1.4-3.1c6-10.8,11.6-21.7,18.2-32.2C729.3-327.3,735.6-328,743.1-327.3z"/>
	<path class="st2" d="M499.9-214c0.9,10.1-1.9,19.3-2.9,28.7c-0.6,5.5-0.7,5.3-6.2,4.1c-3.2-0.7-4.3-2.7-4.9-5.3
		c-1.5-6.4-1.8-12.8-1.3-19.3c0.5-7.2,0.4-14.4,0.5-21.7c0-2.5,0.7-3.8,3.4-3.4c0.4,0.1,0.7,0,1.1,0c10.1-0.2,10.1-0.2,10.4,9.9
		C500-218.4,499.9-215.9,499.9-214z"/>
	<path class="st5" d="M710.4-89.6c-7.6,4.1-13.3,2.3-19.6-5.7c-5.8-7.5-7.9-16.1-8.7-25.3c-0.8-9.7,2.2-18.9,3.2-28.4
		c0.8-7.6,6.4-10.9,11.1-15c3.2-2.8,7.2-4.8,10.8-7.3c7.9-5.8,11-13.2,8.4-22.7c-0.2-0.6-0.5-1.1,0-1.7c6.2,6.9,5.4,15.9-2,23.9
		c-3.6,3.8-7.6,7.3-11.9,10.2c-7,4.8-10.5,11.4-11.7,19.5c-1.5,10.1-2.5,20.1,0.2,30.2c2.8,10.4,8.3,18.2,19,21.6
		C709.5-90.3,709.8-90,710.4-89.6z"/>
	<path class="st2" d="M100.8,547.8c-1.7-10-1.4-19.8,3.1-29.2c2.3-4.8,2.6-4.9,6.7-1.8c2.3,1.7,5.6,2.8,6.8,5.1
		c1.3,2.4-1.7,5.1-2.3,7.8c-1.9,9.1-1,17.6,4.9,25.1c1.5,1.9,2.1,3.3-0.6,5c-2.4,1.5-4.4,3.6-6.5,5.6c-1.5,1.4-2.7,1.6-3.9-0.2
		c-4.1-3.9-6.4-9-8.5-14.2C100.2,549.9,100,548.8,100.8,547.8z"/>
	<path class="st2" d="M449.9-319.3c2.6-0.1,5.2,0.2,7.8-0.6c1.8-0.6,3.3,0,4.7,1.3c10.2,9.8,17.7,21.5,24.2,33.9
		c1.3,2.5,0.4,3.4-1.9,4.3c-6.3,2.5-6.1,2.4-9.5-3.2c-7.4-12.1-17.9-21-29.9-28.2c-2.7-1.6-5.5-2.9-8.2-4.4c-0.9-2.1,0.7-2,1.9-1.9
		C442.7-317.9,446.2-319.1,449.9-319.3z"/>
	<path class="st2" d="M99.4-223.9c-1.3,0.5-1.6-0.4-1.8-1.2c-2.9-10.6-5.8-21.1-8.6-31.7c-0.5-1.7,0.4-2.3,1.9-2.5
		c4.6-0.7,9.1-1.2,13.7-2c1.8-0.3,2.2,0.4,2.5,1.8c2.8,10.1,5.6,20.1,8.3,30.2c0.3,1.1,0.4,1.9-1.1,2.2
		C109.2-226.1,104.3-225,99.4-223.9z"/>
	<path class="st2" d="M779.7-163.7c-3.5-0.2-6.8-3.1-8.2-7.2c-0.4-1.2-0.8-2.4-0.9-3.6c-0.3-2.6-0.4-5.2-0.6-7.8
		c0-9.1,1.6-18.1,2.6-27.1c0.2-1.9,1.1-2.3,2.7-2c0.7,0.1,1.5,0.4,2.2,0.5c3.1,0.3,7.3-0.5,8.7,1.8c1.3,2.1-0.4,6-0.6,9
		c-0.2,3.6-0.5,7.3,0.1,10.8c1.2,6.9-0.3,13.1-3.1,19.2"/>
	<path class="st2" d="M78.3-317.9c7.3-6.5,15.9-8.4,25.4-7.7c6.8,0.5,13.1,2.5,19.4,4.9c2.3,2.6-0.4,2.8-1.7,3.4
		c-8.4,3.8-16.9,7.3-25.4,10.9c-4.3,1.9-8.7,3.6-13,5.6c-2.5,1.2-3.7,0.7-4-2l0,0c-1.4-1.9-0.8-4.1-0.6-6.1
		C78.6-312,78.8-315,78.3-317.9z"/>
	<path class="st2" d="M389.2-251c0-5.5,0.1-11,0-16.4c0-2.4,0.5-3.5,3.2-2.8c3.2,0.8,6.6,1.4,9.9,1.6c2.4,0.2,2.8,1.3,2.7,3.4
		c-0.5,11.5-1,23.1-1.4,34.6c-0.1,1.8-0.5,2.6-2.5,2.8c-13.9,1.2-10.9,2.7-11.8-9.8C389-242,389.3-246.5,389.2-251
		C389.3-251,389.3-251,389.2-251z"/>
	<path class="st2" d="M492-232.5c-6.9,0.2-6.7,0.2-7.1-6.7c-0.6-11.7-1.3-23.4-5.3-34.5c-0.7-2.1-0.5-3,1.7-3.9
		c6.8-2.8,6.7-2.8,9.4,3.9c4.9,11.9,6.8,24.4,8.5,37c0.4,3.2-0.4,4.8-3.9,4.3C494.3-232.6,493.1-232.5,492-232.5z"/>
	<path class="st2" d="M127.5,142.4c0-7.9,5.1-13.2,13-13.2c7.7,0,13.3,5.4,13.3,13.1c0,7.3-6,13.2-13.4,13.2
		C133.1,155.5,127.5,149.9,127.5,142.4z"/>
	<path class="st2" d="M121.6-197.4c0.4,2.8-0.8,4.2-3.6,4.6c-2.8,0.4-5.6,1.1-8.4,1.8c-1.7,0.5-2.3-0.2-2.7-1.6
		c-2.6-9.1-5.2-18.2-7.9-27.3c-0.5-1.8-0.2-2.5,1.6-2.8c4.3-0.9,8.5-1.9,12.7-2.8c1.6-0.4,2.9-0.3,3.3,1.8
		C118.6-215,120.7-206.3,121.6-197.4z"/>
	<path class="st5" d="M100.8,547.8c0.8,5.5,4,9.8,6.6,14.4c0.5,1,1.1,1.9,1.6,2.9c-9.9-5-16.6-12.9-22.2-22.4
		c-3.9-6.6-3.3-12.9-1.1-19.5c2.9-8.4,8.5-14.5,16.1-18.9c6.1-3.5,12.7-5.6,20-5.1c-1.5,2.4-4.4,2.9-6.4,4.7c-2.2,2-4.8,3.8-6.3,6.5
		c-0.1-1.4-0.1-2.5-2.1-1.9c-2.4,0.7-4.6,1.4-6.5,3.3c-3.8,3.9-7.3,8-9.9,12.9c-2.8,5.4-2.4,10.5,1.3,15.1
		C94.4,542.9,96.7,546.4,100.8,547.8z"/>
	<path class="st2" d="M403.8-317.1c10.4-19.7,42.4-16.7,53.8-4.5C439.4-320.1,421.7-318.6,403.8-317.1z"/>
	<path class="st6" d="M753.3-121.2c0.2,5.7,1.3,11.2,0.1,16.6c-0.4,1.8-0.7,3.7-1.6,5.3c-0.6,1.1-1.7,1.1-2.6,0.8
		c-1.4-0.5-0.4-1.3-0.2-2c1.9-6.6,1.4-13.3,1.1-20c-0.2-4.2-1.6-7.9-4.2-11.2c-1.9-2.4-1.7-5.4-1.6-8.3c0.1-1.8,0-3.4-1.8-4.6
		c-6.6-4.6-9.9-11.4-11.6-19c-1.7-7.7-1-15.6,0-23.3c0-0.3,0.4-0.5,1.1-1.3c0.4,5.2,0.2,9.8,0.8,14.4c1.2,8.7,3.4,17,9.2,23.9
		c2.5,3,3.2,3,5.9,0.2c2.6-2.7,5.7-4.6,10.6-4c-4.4,2-7.4,4.5-9.6,7.9c-3.6,5.5-3.6,10.7,1.1,15.2c9.1,8.6,13.2,19.9,17.6,31.2
		c0.5,1.4,0.5,2.8-0.7,3.3c-1.8,0.8-1.7-1.2-2.1-2.2c-2.9-6.6-5.8-13.2-8.8-19.7C755.8-119.1,755.4-120.5,753.3-121.2z"/>
	<path class="st2" d="M733.6-328.7c14.1-15,26.3-17,41.3-1"/>
	<path class="st2" d="M170.6,106.6c0,5.4-3.8,9.3-9.1,9.3c-5.1,0-9.4-3.9-9.6-8.6c-0.2-5.8,4-10.2,9.7-10.1
		C166.8,97.2,170.5,101.1,170.6,106.6z"/>
	<path class="st7" d="M762.5-154.1c3.2-6.7,9.4-9.7,15.8-8.5c7,1.4,10.1,5,11.9,12.8c1.1,4.7,0.5,9.4,1.1,14.1
		c1.1,7.8,4.7,14.6,7.9,21.5c0.5,1,2,1.9,0.3,3.1c-1.8,1.3-2.4-0.2-3.1-1.4c-5.3-8.5-8-17.9-8.6-27.8c-0.2-4,0.1-8.1-1.3-11.8
		c-3-8.3-11.2-10.3-19.7-5.1C765.7-156.3,764.5-155.5,762.5-154.1z"/>
	<path class="st8" d="M79-302.9c0.6,1.4,1,2.4,3.2,1.5c13.2-5.8,26.6-11.4,39.9-17.1c1.1-0.5,2.2-0.9,1-2.3c1.8,0.2,3.1,1.4,4.6,2.2
		c-5.8,1.2-10.8,4.3-16.2,6.5c-9,3.7-17.9,7.5-26.8,11.4c-1.6,0.7-3.7,0.9-4.4,3.1C78.3-299,79.1-301,79-302.9z"/>
	<path class="st2" d="M449.9-319.3c-3.5,0.5-6.7,2.5-10.4,1.7c-1.2-0.3-2.2-0.1-2.4,1.4c-1.5-0.1-2.8-0.4-4.6-1.9
		C438.7-318.6,444.2-319.5,449.9-319.3z"/>
	<path class="st9" d="M78.3-317.9c1.3,5,0.6,10,0.7,15c-1.3,0.6-0.1,3.1-2.3,3c1.6-3.1,0.4-6.5,0.8-9.7
		C79.1-312.3,77.7-315.2,78.3-317.9z"/>
	<path class="st0" d="M90.4,366.1c-1.7,1.7-3.3,0.2-4.8-0.3c-7.5-2.4-13.1-7.5-18-13.4c-3.6-4.3-7-8.6-9.1-13.9
		c-2.5-6.2-2.2-12.2,0.2-18.1c3.8-9.4,10.4-16.4,19.9-20.2c5.6-2.2,11.5-4,17.7-2.4c-6.6,8.5-11.3,17.8-13,28.5
		c-0.4,2.8-0.6,5.7-1,8.5c-0.3,2.5,0.6,3.6,3.3,3.5c5.2-0.2,10.4-0.1,15.7-0.1c-0.2,2-1.5,1.4-2.3,1.5c-4.1,0.1-8.2,0.3-12.3,0
		c-3.6-0.3-4.2,1.2-3.8,4.3C83.9,351.9,86.6,359.1,90.4,366.1z"/>
	<text transform="matrix(1 0 0 1 28.7778 -373.5557)" class="st10" style="font-size:22px;">Apical 4 cámaras</text>
	<text transform="matrix(1 0 0 1 353.7733 -378.3207)" class="st10" style="font-size:22px;">Apical 2 cámaras</text>
	<text transform="matrix(1 0 0 1 658.7732 -378.3207)" class="st10" style="font-size:22px;">Apical 3 cámaras</text>
	<text transform="matrix(1 0 0 1 28.7732 -15.3207)" class="st10" style="font-size:22px;">Paraesternal eje corto</text>
	<text transform="matrix(1 0 0 1 80.3004 -332.3211)" class="st10 st11">Ápex</text>
	<text transform="matrix(1 0 0 1 152.4813 -306.7314)" class="st10 st11">Lateral apical</text>
	<text transform="matrix(1 0 0 1 185.3265 -276.7316)"><tspan x="0" y="0" class="st10 st11">Anterolateral</tspan><tspan x="0" y="12" class="st10 st11">medio</tspan></text>
	<text transform="matrix(1 0 0 1 209.3265 -232.7316)"><tspan x="0" y="0" class="st10 st11">Anterolateral  </tspan><tspan x="0" y="12" class="st10 st11">basal</tspan></text>
	<text transform="matrix(1 0 0 1 25.3265 -203.7316)" class="st10 st11">Inferoseptal basal</text>
	<text transform="matrix(1 0 0 1 11.5488 -236.7316)" class="st10 st11">Inferoseptal medio</text>
	<text transform="matrix(1 0 0 1 28.5488 -278.7316)" class="st10 st11">Septal apical</text>
	<text transform="matrix(1 0 0 1 201.719 96.7126)" class="st10 st11">Anterolateral</text>
	<text transform="matrix(1 0 0 1 43.1331 163.7126)" class="st10 st11">Inferoseptal</text>
	<text transform="matrix(1 0 0 1 201.3638 305.7126)" class="st10 st11">Anterolateral</text>
	<text transform="matrix(1 0 0 1 41.6595 378.7126)" class="st10 st11">Inferoseptal</text>
	<text transform="matrix(1 0 0 1 62.5494 542.7126)" class="st10 st11">Septal</text>
	<text transform="matrix(1 0 0 1 197.1631 542.991)" class="st10 st11">Lateral</text>
	<text transform="matrix(1 0 0 1 415.2591 -341.287)" class="st10 st11">Ápex</text>
	<text transform="matrix(1 0 0 1 743.2588 -349.287)" class="st10 st11">Ápex</text>
	<text transform="matrix(1 0 0 1 479.4075 -303.2872)" class="st10 st11">Anterior apical</text>
	<text transform="matrix(1 0 0 1 500.2527 -253.2873)" class="st10 st11">Anterior medio</text>
	<text transform="matrix(1 0 0 1 507.2527 -208.2873)" class="st10 st11">Anterior basal</text>
	<text transform="matrix(1 0 0 1 336.1331 -187.7873)" class="st10 st11">Inferior basal</text>
	<text transform="matrix(1 0 0 1 325.3553 -244.7873)" class="st10 st11">Inferior medio</text>
	<text transform="matrix(1 0 0 1 329.3553 -293.7873)" class="st10 st11">Inferior apical</text>
	<text transform="matrix(1 0 0 1 127.3333 197.7126)" class="st10 st11">Inferior</text>
	<text transform="matrix(1 0 0 1 124.5555 406.7126)" class="st10 st11">Inferior</text>
	<text transform="matrix(1 0 0 1 127.5555 598.7126)" class="st10 st11">Inferior</text>
	<text transform="matrix(1 0 0 1 127.012 483.2128)" class="st10 st11">Anterior</text>
	<text transform="matrix(1 0 0 1 123.8572 272.2126)" class="st10 st11">Anterior</text>
	<text transform="matrix(1 0 0 1 129.8572 56.2126)" class="st10 st11">Anterior</text>
	<text transform="matrix(1 0 0 1 600.3333 -191.2874)" class="st10 st11">Inferolateral basal</text>
	<text transform="matrix(1 0 0 1 606.5555 -253.2874)" class="st10 st11">Inferolateral medio</text>
	<text transform="matrix(1 0 0 1 652.5555 -309.2874)" class="st10 st11">Lateral apical</text>
	<text transform="matrix(1 0 0 1 802.5776 -189.287)" class="st10 st11">Anteroseptal basal</text>
	<text transform="matrix(1 0 0 1 797.9327 -236.287)" class="st10 st11">Anteroseptal medio</text>
	<text transform="matrix(1 0 0 1 800.1481 -303.287)" class="st10 st11">Anterior apical</text>
	<text transform="matrix(1 0 0 1 189.8072 172.713)" class="st10 st11">Inferolateral</text>
	<text transform="matrix(1 0 0 1 187.0294 387.713)" class="st10 st11">Inferolateral</text>
	<text transform="matrix(1 0 0 1 28.9828 315.713)" class="st10 st11">Anteroseptal</text>
	<text transform="matrix(1 0 0 1 35.5775 96.7127)" class="st10 st11">Anteroseptal</text>
</g>
<text transform="matrix(1 0 0 1 119.0782 26.79)" class="st10 st12">Basal</text>
<text transform="matrix(1 0 0 1 117.0092 235.9498)" class="st10 st12">Medio</text>
<text transform="matrix(1 0 0 1 116.0095 446.9495)" class="st10 st12">Apical</text>
</svg>
